# xmcd CD database file
#
# Track frame offsets:
#	150
#	14467
#	32381
#	49306
#	72605
#	93140
#	108117
#	127422
#	145009
#	165789
#	189682
#
# Disc length: 2711 seconds
#
# Revision: 1
# Processed by: cddbd v1.5.2PL0 Copyright (c) Steve Scherf et al.
# Submitted via: CDex 1.70beta2
#
DISCID=900a950b
DTITLE=Jason Champion - Reflections
DYEAR=2009
DGENRE=R&B
TTITLE0=Always
TTITLE1=Find a Reason
TTITLE2=Friend of Mine
TTITLE3=The Life
TTITLE4=I'm Sorry
TTITLE5=For Better Or For Worse
TTITLE6=Reflections
TTITLE7=Father You
TTITLE8=He is the Way
TTITLE9=Ain't So Bad
TTITLE10=The Lord's Praer
EXTD=YEAR: 2009
EXTT0=
EXTT1=
EXTT2=
EXTT3=
EXTT4=
EXTT5=
EXTT6=
EXTT7=
EXTT8=
EXTT9=
EXTT10=
PLAYORDER=
